<?xml version="1.0" encoding="utf-8"?>
<!-- Generator: Adobe Illustrator 23.1.0, SVG Export Plug-In . SVG Version: 6.00 Build 0)  -->
<svg version="1.1" id="Layer_1" xmlns="http://www.w3.org/2000/svg" xmlns:xlink="http://www.w3.org/1999/xlink" x="0px" y="0px"
	 viewBox="0 0 200 123.3" style="enable-background:new 0 0 200 123.3;" xml:space="preserve">
<style type="text/css">
	.st0{fill:#EF7B10;}
	.st1{fill:#FFFFFF;}
</style>
<g>
	<path class="st0" d="M200,0v111.1c0,6.7-5.5,12.2-12.2,12.2H12.2c-6.7,0-12.2-5.5-12.2-12.2V0L200,0L200,0z"/>
	<g>
		<path class="st1" d="M48.2,100.6H33c-2,0-3.8-0.8-5.4-2.4c-1.6-1.6-2.3-3.5-2.3-5.6V76c0-2.2,0.8-3.9,2.4-5.5
			c1.6-1.4,3.5-2.3,5.6-2.3h10.4c2.2,0,4.1,0.7,5.6,2.3c1.6,1.4,2.4,3.3,2.4,5.5v6.5c0,1.4-0.4,2.6-1.2,3.3
			c-0.8,0.7-1.8,1.1-3.1,1.1H31v4.9c0,1.2,0.4,2,1,2.8c0.6,0.6,1.6,1,2.9,1H48c0.7,0,1.3,0.1,1.8,0.6c0.5,0.4,0.6,1,0.6,1.7v0.7
			c0,0.6-0.2,1.2-0.7,1.7C49.6,100.5,49,100.6,48.2,100.6L48.2,100.6z M32.2,74.4c-0.6,0.6-1,1.3-1,2.3v5.3h15v-5.3
			c0-1-0.2-1.7-1-2.3c-0.6-0.6-1.3-1-2.3-1h-8.8C33.5,73.6,32.8,73.8,32.2,74.4"/>
		<path class="st1" d="M82.7,100.6h-1c-0.7,0-1.3-0.2-1.8-0.7s-0.7-1.1-0.7-1.7V78.5l-6.4,8.3c-0.4,0.5-0.7,0.8-1.1,1.2
			s-0.8,0.5-1.4,0.5h-0.7c-0.5,0-1-0.1-1.3-0.5c-0.4-0.2-0.7-0.7-1.1-1.2l-6.4-8.1v19.6c0,0.6-0.2,1.2-0.7,1.7s-1.1,0.7-1.7,0.7h-1
			c-0.7,0-1.3-0.2-1.8-0.7c-0.5-0.5-0.7-1.1-0.7-1.7V70.5c0-0.7,0.1-1.3,0.6-1.7c0.4-0.4,1-0.6,1.7-0.6h1.2c0.5,0,1,0.1,1.3,0.5
			c0.4,0.2,0.7,0.7,1.1,1.2l9.1,12.2l9.2-12.2c0.4-0.6,0.7-1,1-1.2c0.4-0.4,0.8-0.5,1.3-0.5h1.2c0.7,0,1.3,0.1,1.7,0.6
			c0.4,0.4,0.6,1,0.6,1.7v27.8c0,0.7-0.2,1.3-0.7,1.7C83.9,100.5,83.3,100.6,82.7,100.6L82.7,100.6"/>
		<path class="st1" d="M111.1,86.7H94.5v4.9c0,1.2,0.4,2,1,2.8c0.6,0.6,1.6,1,2.9,1h13.2c0.7,0,1.3,0.1,1.8,0.6
			c0.5,0.4,0.6,1,0.6,1.7v0.7c0,0.6-0.2,1.2-0.7,1.7c-0.5,0.5-1.1,0.6-1.7,0.6l0,0H96.3c-2,0-3.8-0.8-5.4-2.4
			c-1.6-1.6-2.3-3.5-2.3-5.6V76c0-2.2,0.8-4.1,2.4-5.5c1.6-1.4,3.5-2.3,5.6-2.3h10.4c2.2,0,4.1,0.7,5.6,2.3c1.6,1.4,2.4,3.3,2.4,5.5
			v6.5c0,1.4-0.4,2.6-1.2,3.3C113.4,86.4,112.3,86.7,111.1,86.7 M95.5,74.3c-0.6,0.6-1,1.3-1,2.3v5.3h15v-5.3c0-1-0.4-1.7-1-2.3
			c-0.6-0.6-1.3-1-2.3-1h-8.6C96.8,73.3,96.1,73.7,95.5,74.3"/>
		<path class="st1" d="M137,100.5h-10.7l0,0c-2.3,0-4.2-0.8-5.6-2.3c-1.4-1.6-2.3-3.3-2.3-5.5V75.8c0-2.2,0.8-4.1,2.3-5.5
			c1.6-1.4,3.5-2.3,5.6-2.3h14.8c0.7,0,1.3,0.2,1.8,0.6c0.5,0.4,0.7,1,0.7,1.7v0.7c0,0.6-0.2,1.2-0.7,1.7c-0.5,0.4-1.1,0.6-1.7,0.6
			h-13.7c-1,0-1.7,0.4-2.4,1c-0.6,0.6-1,1.3-1,2.4v15.4c0,1,0.2,1.7,0.8,2.3c0.6,0.6,1.3,1,2.4,1h8.5c1,0,1.7-0.4,2.3-1
			c0.6-0.7,1-1.4,1-2.3v-5h-5.8c-0.7,0-1.3-0.2-1.8-0.6c-0.5-0.4-0.7-1-0.7-1.7v-0.7c0-0.6,0.2-1.2,0.7-1.7c0.5-0.4,1.1-0.6,1.7-0.6
			h11.6v11c0,2.2-0.8,3.9-2.3,5.5C141.1,99.8,139.2,100.5,137,100.5"/>
		<path class="st1" d="M170.4,86.7h-16.6v4.9c0,1.2,0.4,2,1,2.8c0.6,0.6,1.6,1,2.9,1h13.2c0.7,0,1.3,0.1,1.8,0.6
			c0.5,0.4,0.6,1,0.6,1.7v0.7c0,0.6-0.2,1.2-0.7,1.7c-0.5,0.5-1.1,0.6-1.7,0.6l0,0h-15.2c-2,0-3.8-0.8-5.4-2.4
			c-1.6-1.6-2.3-3.5-2.3-5.6V76c0-2.2,0.8-4.1,2.4-5.5c1.6-1.4,3.5-2.3,5.6-2.3h10.4c2.2,0,4.1,0.7,5.6,2.3c1.6,1.4,2.4,3.3,2.4,5.5
			v6.5c0,1.4-0.4,2.6-1.2,3.3C172.6,86.4,171.6,86.7,170.4,86.7 M154.6,74.3c-0.6,0.6-1,1.3-1,2.3v5.3h15v-5.3c0-1-0.2-1.7-1-2.3
			c-0.6-0.6-1.3-1-2.3-1h-8.8C156.1,73.3,155.4,73.7,154.6,74.3"/>
		<path class="st1" d="M151,62.7c0-0.4,0.2-0.7,0.6-0.8l17.9-4.4c0.1,0,0.1,0,0.2,0c0.5,0,0.8,0.4,0.8,0.8v4.4l0,0l0,0
			c0,0.5-0.4,0.8-0.8,0.8h-17.9h-0.1C151.5,63.5,151,63.2,151,62.7"/>
	</g>
</g>
</svg>
